<svg xmlns="http://www.w3.org/2000/svg" width="14" height="14"><path d="M11.6 13H14V4.6L7 .4 0 4.6V13h2.4V6L7 3.32 11.6 6zm-5.9-2.6V13h2.6v-2.6z" fill="#fff"/><path d="M9.23 13.94c-.015-.014-.192-.041-.395-.06a13.283 13.283 0 01-.624-.073c-.42-.064-1.758-.483-2.087-.654-.17-.088-.37-.16-.445-.16-.075 0-.137-.04-.137-.09 0-.05-.038-.066-.085-.037-.046.028-.085.01-.085-.043 0-.052-.034-.073-.077-.047-.043.027-.09.018-.106-.02-.016-.037-.314-.257-.664-.487-.784-.518-2.22-1.927-2.718-2.666C1.426 9.035.711 7.759.711 7.645c0-.036-.043-.172-.097-.304a2.535 2.535 0 01-.128-.408A1.662 1.662 0 00.4 6.637a1.333 1.333 0 01-.071-.212.695.695 0 00-.036-.127c-.024-.05-.06-.253-.13-.72-.06-.399-.06-2.664-.001-3.094.068-.494.11-.708.197-.99.045-.147.06-.29.033-.317-.027-.027 0-.049.06-.049.059 0 .087-.053.062-.119C.489.944.495.865.527.833A.242.242 0 00.59.719C.595.688.681.478.782.253c.101-.226.184-.464.184-.53s.044-.12.099-.12c.054 0 .077-.022.05-.048-.05-.05.859-1.471 1.268-1.984.37-.463 1.423-1.443 1.55-1.443.041 0 .106-.05.143-.112.107-.177 1.558-.978 2.242-1.238.668-.253.95-.356.98-.356.012 0 .145-.038.298-.084.28-.085.492-.13.954-.197.282-.04 2.505-.048 2.84-.01.516.06 2.2.543 2.553.731.17.09.347.165.394.165.048 0 .308.149.58.332.272.182.52.316.552.296.032-.02.071-.004.087.036.016.04.372.36.791.712.42.352.846.73.947.84l.403.436c.12.13.218.274.218.32 0 .046.057.106.127.133.07.026.127.096.127.153 0 .058.076.174.17.259.093.084.17.2.17.257 0 .057.057.151.128.21.071.06.111.126.088.149-.044.044.167.494.328.697.056.07.17.356.255.636.084.28.193.604.24.72.049.117.096.25.104.297a.685.685 0 00.037.127c.01.023.033.118.05.212l.075.423c.23 1.27.204 2.737-.065 3.772a5.32 5.32 0 00-.084.38 2.52 2.52 0 01-.134.425 2.94 2.94 0 00-.152.53c-.025.15-.076.275-.113.275-.036 0-.093.122-.126.27-.033.15-.112.324-.177.389-.065.064-.096.152-.07.195.027.043.006.078-.046.078s-.071.038-.042.085c.028.046.02.084-.018.084-.039 0-.165.18-.28.399-.255.482-.434.704-1.312 1.624-.634.663-1.643 1.538-2.033 1.762-.448.258-1.531.773-1.76.837a.746.746 0 00-.106.04.801.801 0 01-.127.042.801.801 0 00-.127.042c-.065.033-.111.042-1.017.2-.466.08-.943.164-1.06.185-.259.046-1.698.092-1.735.055zM7.001 5.536c-.02-2.235-.008-2.542.106-2.542.072 0 .13-.033.13-.072 0-.04.143-.135.318-.211.174-.077.47-.233.656-.347.187-.113.472-.267.633-.342.162-.075.314-.165.34-.2.024-.034.205-.133.401-.219.354-.156.36-.156.848.04.27.108.51.226.536.262.025.036.177.127.339.201.161.075.446.23.632.343.187.114.478.268.647.342l.307.136.063 2.576.062 2.575h1.987l.056-2.301c.031-1.266.056-2.641.056-3.056v-.753l-.275-.125c-.152-.07-.39-.2-.53-.291a5.755 5.755 0 00-.424-.252c-.247-.125-.501-.29-.552-.356a.892.892 0 00-.254-.148A3.146 3.146 0 0112.706.6a46.3 46.3 0 00-.508-.316 728.24 728.24 0 01-.512-.315 4.236 4.236 0 00-.297-.166 18.57 18.57 0 01-.73-.427c-.333-.2-.63-.365-.66-.365-.03 0-.196.089-.37.198-.174.11-.545.324-.824.476-.28.153-1.261.721-2.18 1.264l-1.673.985-.001 3.072-.002 3.072h2.076zm4.03 1.504l-.023-1.038-.99-.024-.992-.023L9 7.016l-.026 1.062h2.082l-.024-1.039z" fill="none"/></svg>