<svg xmlns="http://www.w3.org/2000/svg" viewBox="0 0 512.001 512.001"><path d="M364.653 249.561L175.971 60.901C125.986 83.082 85.553 122.163 61.63 171.413l190.711 190.705 70.597 16.607 74.427 16.003-16.02-74.526-16.692-70.641zm-47.416 120.065l-55.435-12.624c19.941-43.466 54.378-77.901 97.839-97.859l12.625 55.436c-23.52 11.775-43.262 31.509-55.029 55.047z" fill="#385c8e"/><path d="M269.703 32.684c-31.784 0-62.652 6.157-91.813 18.266L128.174 1.228A4.2 4.2 0 0 0 123 .625C74.593 30.553 33.193 71.957 3.269 120.36a4.193 4.193 0 0 0 .599 5.174l47.66 47.646c-14.255 31.286-21.502 64.63-21.502 99.167 0 132.145 107.519 239.654 239.676 239.654 132.148 0 239.66-107.509 239.66-239.654 0-132.151-107.512-239.663-239.659-239.663zm53.236 346.041l-70.597-16.607L61.63 171.413c23.925-49.25 64.358-88.331 114.341-110.512l188.682 188.66 16.691 70.643 16.02 74.526-74.425-16.005z" fill="#73a1fb"/><path d="M261.801 357.002l55.435 12.624c11.768-23.537 31.509-43.272 55.029-55.046l-12.625-55.435c-43.463 19.956-77.898 54.393-97.839 97.857z" fill="#fff"/></svg>