<svg xmlns="http://www.w3.org/2000/svg" width="528.05" height="150.647" viewBox="0 0 4971.15 1418.21" shape-rendering="geometricPrecision" text-rendering="geometricPrecision" image-rendering="optimizeQuality" fill-rule="evenodd" clip-rule="evenodd"><defs><style>.fil0{fill:#d19010}</style></defs><g id="Layer_x0020_1"><path id="Runivers-logo-color.eps" class="fil0" d="M896.44 1080.25l251.42-591.03h148.73L958.94 1247.7h.01c-30.55 69.26-61.42 111.65-94.04 136.87-33.37 25.8-68.16 33.64-106.06 33.64-15.66-.01-31.61-1.25-46.72-3.12-15-1.86-29.29-4.36-41.72-6.83l-7.56-1.51v-117.93l11.02 1.96c10.1 1.77 19.87 2.97 30.57 3.7 10.71.72 22.74 1.03 37.34 1.03 20.12-.02 32.74-2.84 44.33-13.28 12.26-11.04 24.42-30.53 42.7-63.06L481.73 489.21h148.99l265.72 591.03z"/><path id="Runivers-logo-color.eps_0" class="fil0" d="M4971.15 684.22c-6.7-89.67-80.47-215.41-262.37-215.41-156.75 0-279.14 108.13-279.14 321.04 0 209.57 115.68 319.52 277.46 319.52 152.56-.02 238.9-92.35 264.05-224.79h-126.58c-15.09 74.6-64.54 117.36-134.96 117.36-107.3 0-153.4-101.43-153.4-210.4 0-171.85 92.2-215.44 153.4-215.44 104.78-.02 124.89 71.25 134.95 108.13l126.58-.02z"/><path id="Runivers-logo-color.eps_1" class="fil0" d="M4014.69 589.51h101.44c78.79 0 111.49 25.15 111.49 84.66 0 37.71-10.9 94.73-94.73 94.73H4014.7V589.51zm0 284.17h145.86c163.47 0 193.64-139.98 193.64-194.48 0-119.87-70.41-194.46-187.77-194.46h-278.29v608.57h126.57V873.69z"/><path id="Runivers-logo-color.eps_2" class="fil0" d="M3303.86 484.73v608.57h462.71V988.52h-336.14v-168.5h295.91V715.25h-295.91V589.51h322.73V484.73z"/><path id="Runivers-logo-color.eps_3" class="fil0" d="M2803.42 589.51h145.02c57.84 0 93.04 15.93 93.04 65.38 0 48.61-39.41 67.9-89.7 67.9h-148.37V589.51zm0 235.54h160.94c46.11 0 91.37 20.97 91.37 73.78 0 62.02-36.05 89.7-98.08 89.7l-154.24-.01V825.05zm-126.57 268.25h261.53c224.66 0 243.93-129.92 243.93-181.9 0-59.52-18.45-118.19-93.05-145.85 25.15-12.57 73.77-38.56 73.77-125.74 0-62.03-37.72-155.07-186.1-155.07h-300.09v608.57z"/><path id="Runivers-logo-color.eps_4" class="fil0" d="M2131.98 484.73h-126.56v608.57h135.79l248.12-433.37h1.68v433.37h126.57V484.73h-142.5l-242.25 424.15h-.85z"/><path id="Runivers-logo-color.eps_5" class="fil0" d="M1499.1 484.73h-126.57v608.57h126.57V820.02h237.23v273.28h126.58V484.73h-126.58v230.52H1499.1z"/><path id="Runivers-logo-color.eps_6" class="fil0" d="M126.57 589.51H228c78.8 0 111.49 25.15 111.49 84.66 0 37.71-10.9 94.73-94.73 94.73H126.57V589.51zm0 284.17h145.85c163.47 0 193.65-139.98 193.65-194.48 0-119.87-70.41-194.46-187.78-194.46H0v608.57h126.57V873.69z"/><path id="Runivers-logo-color.eps_7" class="fil0" d="M872.44 0l41.39 159.13 142.71-82.86-83.25 141.83 159.48 42.27-159.11 41.38 82.88 142.73-141.83-83.26-42.27 159.49-41.41-159.1-142.7 82.87 83.24-141.82-159.49-42.29 159.11-41.41-82.86-142.69 141.81 83.24z"/></g></svg>