<svg xmlns="http://www.w3.org/2000/svg" viewBox="0 0 410.2 410.2"><path d="M410.1 78.4c0 .8-.2 1.7-.8 2.6-9.7 14.6-21.6 27.6-35.2 38.6-3.6 2.9-5.6 7.2-5.6 11.7v1.3c0 28.3-5.5 57.9-15.9 85.6-10.9 29.1-26.6 55.4-46.7 78.2-21.6 24.5-47.2 43.7-76.3 57.1-31.7 14.7-66.7 22.1-104.2 22.1-42.8 0-85-11.4-121.9-32.9C.8 341.1-.7 338 .1 335c.8-3.1 3.5-5.1 6.6-5.1h10.2c32.8 0 64.3-9.6 91.4-27.8-16.3-2.6-31.3-9.8-43.4-20.3-12.1-10.4-21.5-24.2-26.6-40-1-3.1 1.3-6 4.4-6 .3 0 .6 0 .9.1 4.9.9 9.9 1.4 14.9 1.4h1.9C29.5 223.2 8.7 192 8.7 156.8v-1.1c0-2.7 2.2-4.6 4.6-4.6.8 0 1.5.2 2.2.6 6.3 3.5 13.1 6.1 20.2 7.8C19 143 9.3 120.4 9.3 96.5c0-7.8 1-15.6 3.1-23.1 2-7.5 5-14.7 8.9-21.4.9-1.5 2.4-2.3 4-2.3 1.3 0 2.6.6 3.6 1.7 40 49.1 96.6 79.3 159.4 85.1h.3c.9 0 1.8-.4 2.4-1.1.4-.4.9-1.2.8-2.5-1.2-10.7-.5-21.6 2.1-32.6 6.9-29.2 29.1-52.8 57.7-61.7 9.3-2.9 18.7-4.3 28-4.3 21.6 0 42.4 7.8 58.5 22.1 2.1 1.9 4.8 2.9 7.6 2.9.9 0 1.8-.1 2.7-.3 7.6-1.9 15-4.4 22.2-7.4 7.2-3 14.2-6.5 21-10.5 3.2-1.9 7 .6 7 3.9 0 .5-.1 1-.2 1.5-4.5 14.2-12.6 26.9-23.3 37.1 9.7-2.3 19.2-5.5 28.3-9.5 3.6-1.4 6.7 1.2 6.7 4.3z"/></svg>