<svg xmlns="http://www.w3.org/2000/svg" viewBox="0 0 24 24"><path d="M19.339 7.696c.583 8.663-9.204 14.063-16.339 9.675 2.002.016 4.221-.535 5.411-1.661-1.732-.28-2.956-1.07-3.435-2.6.506-.054 1.22.104 1.561-.106-1.582-.605-2.835-1.535-2.911-3.641.562.058.855.389 1.557.31-1.021-.655-2.191-3.15-1.143-4.997 1.859 2.065 4.178 3.663 7.805 3.956-.902-3.825 4.171-6.194 6.451-3.433.887-.189 1.634-.517 2.392-.833-.31.869-.943 1.418-1.562 1.98.671-.126 1.386-.214 1.874-.524-.086.68-1.067 1.357-1.661 1.874"/></svg>