<svg xmlns="http://www.w3.org/2000/svg" viewBox="0 0 24 24"><path d="M18.382 13.42c.465.487.975.933 1.431 1.437.361.391.706.814.993 1.267.378.583.146 1.021-.561 1.057-.913.048-1.831.038-2.743.053-.053 0-.104-.018-.155-.023-.479-.097-.865-.365-1.198-.702-.448-.458-.861-.949-1.333-1.389-.474-.45-.891-.337-1.108.28-.114.335-.156.704-.191 1.055-.04.405-.196.562-.603.549-.541-.014-1.08.018-1.617-.02-1.423-.09-2.635-.669-3.673-1.638-.772-.729-1.396-1.576-1.968-2.458-.977-1.505-1.811-3.088-2.552-4.714-.217-.484-.103-.708.425-.724a53.631 53.631 0 0 1 2.568-.013c.345.004.588.201.718.531a15.405 15.405 0 0 0 1.564 2.938c.22.328.465.645.745.912.354.339.661.252.792-.224.087-.3.138-.615.149-.922.021-.553.018-1.101-.017-1.65-.054-.859-.253-1.095-1.09-1.335a.905.905 0 0 1 .705-.559c.385-.07.781-.123 1.168-.126.608-.004 1.218.003 1.819.074.687.075.87.294.88.99.012.786-.029 1.575-.039 2.364-.001.264-.009.531.015.793.018.162.059.336.135.492.151.316.387.39.627.138.4-.42.799-.858 1.089-1.35.481-.81.879-1.657 1.29-2.503.224-.459.282-.52.791-.526.915-.012 1.83-.016 2.751-.031.765-.009 1.007.301.644.976-.399.75-.888 1.453-1.367 2.166-.367.546-.793 1.047-1.174 1.589-.369.526-.351.788.09 1.246"/></svg>