<?xml version="1.0" encoding="utf-8"?>
<!-- Generator: Adobe Illustrator 21.0.0, SVG Export Plug-In . SVG Version: 6.00 Build 0)  -->
<svg version="1.1" id="Layer_1" xmlns="http://www.w3.org/2000/svg" xmlns:xlink="http://www.w3.org/1999/xlink" x="0px" y="0px"
	 viewBox="0 0 408.8 408.8" style="enable-background:new 0 0 408.8 408.8;" xml:space="preserve">
<g id="XMLID_1_">
	<g>
		<path d="M408.8,55.1v298.6c0,30.4-24.7,55.1-55.1,55.1h-87.6l0.2-146.1h50.5c4.5,0,8.4-3.4,8.9-7.9l5.6-47.1
			c0.6-5.3-3.5-10-8.9-10h-56.3v-39.4c0-17.9,5-30,30.6-30l23.7,0c4.9,0,9-4,9-9V79.6c0-5-4-9-9-9h-38.6
			c-47.1,0-79.3,28.8-79.3,81.6v45.5h-37.9c-5,0-9,4-8.9,9l0.2,47.1c0,4.9,4,8.9,8.9,8.9h37.9l-0.2,146.1H55.1
			C24.7,408.8,0,384.1,0,353.7V55.1C0,24.7,24.7,0,55.1,0h298.6C384.1,0,408.8,24.7,408.8,55.1z"/>
	</g>
	<g>
	</g>
</g>
</svg>
