<?xml version="1.0" encoding="utf-8"?>
<!-- Generator: Adobe Illustrator 22.0.1, SVG Export Plug-In . SVG Version: 6.00 Build 0)  -->
<svg version="1.1" id="Layer_1" xmlns="http://www.w3.org/2000/svg" xmlns:xlink="http://www.w3.org/1999/xlink" x="0px" y="0px"
	 viewBox="0 0 24 24" style="enable-background:new 0 0 24 24;" xml:space="preserve">
<g>
	<path d="M12,14.5c-4.711,0-8,2.467-8,6v2h16v-2C20,16.967,16.71,14.5,12,14.5z M6,20.5c0-1.312,0.767-2.402,2.056-3.112
		l2.075,3.112H6z M13.868,20.5l2.075-3.112C17.232,18.098,18,19.188,18,20.5H13.868z"/>
	<path d="M12,13.5c2.757,0,5-2.243,5-5v-6h-2v2h-2v-3h-2v3H9v-2H7v6C7,11.257,9.243,13.5,12,13.5z M12,11.5
		c-1.304,0-2.416-0.836-2.829-2h5.658C14.416,10.664,13.304,11.5,12,11.5z M9,6.5h6v1H9V6.5z"/>
</g>
</svg>
