<?xml version="1.0" encoding="UTF-8" standalone="no"?>
<!-- Generator: Adobe Illustrator 22.0.1, SVG Export Plug-In . SVG Version: 6.00 Build 0)  -->

<svg
   xmlns:dc="http://purl.org/dc/elements/1.1/"
   xmlns:cc="http://creativecommons.org/ns#"
   xmlns:rdf="http://www.w3.org/1999/02/22-rdf-syntax-ns#"
   xmlns:svg="http://www.w3.org/2000/svg"
   xmlns="http://www.w3.org/2000/svg"
   xmlns:sodipodi="http://sodipodi.sourceforge.net/DTD/sodipodi-0.dtd"
   xmlns:inkscape="http://www.inkscape.org/namespaces/inkscape"
   version="1.1"
   id="Layer_1"
   x="0px"
   y="0px"
   viewBox="0 0 24 24"
   style="enable-background:new 0 0 24 24;"
   xml:space="preserve"
   sodipodi:docname="rulers.svg"
   inkscape:version="0.92.3 (2405546, 2018-03-11)"><metadata
   id="metadata13"><rdf:RDF><cc:Work
       rdf:about=""><dc:format>image/svg+xml</dc:format><dc:type
         rdf:resource="http://purl.org/dc/dcmitype/StillImage" /></cc:Work></rdf:RDF></metadata><defs
   id="defs11" /><sodipodi:namedview
   pagecolor="#ffffff"
   bordercolor="#666666"
   borderopacity="1"
   objecttolerance="10"
   gridtolerance="10"
   guidetolerance="10"
   inkscape:pageopacity="0"
   inkscape:pageshadow="2"
   inkscape:window-width="1920"
   inkscape:window-height="1017"
   id="namedview9"
   showgrid="false"
   inkscape:zoom="9.8333333"
   inkscape:cx="12"
   inkscape:cy="12"
   inkscape:window-x="1432"
   inkscape:window-y="-8"
   inkscape:window-maximized="1"
   inkscape:current-layer="Layer_1" />
<g
   id="g6"
   transform="matrix(1.142875,0,0,1.1428571,-1.7145,-1.7142869)">
	<path
   d="m 12,14.5 c -4.711,0 -8,2.467 -8,6 v 2 h 16 v -2 c 0,-3.533 -3.29,-6 -8,-6 z m -6,6 c 0,-1.312 0.767,-2.402 2.056,-3.112 l 2.075,3.112 z m 7.868,0 2.075,-3.112 C 17.232,18.098 18,19.188 18,20.5 Z"
   id="path2"
   inkscape:connector-curvature="0" />
	<path
   d="m 12,13.5 c 2.757,0 5,-2.243 5,-5 v -6 h -2 v 2 h -2 v -3 h -2 v 3 H 9 v -2 H 7 v 6 c 0,2.757 2.243,5 5,5 z m 0,-2 c -1.304,0 -2.416,-0.836 -2.829,-2 h 5.658 c -0.413,1.164 -1.525,2 -2.829,2 z m -3,-5 h 6 v 1 H 9 Z"
   id="path4"
   inkscape:connector-curvature="0" />
</g>
</svg>