<?xml version="1.0" encoding="utf-8"?>
<!-- Generator: Adobe Illustrator 21.0.0, SVG Export Plug-In . SVG Version: 6.00 Build 0)  -->
<svg version="1.1" id="Layer_1" xmlns="http://www.w3.org/2000/svg" xmlns:xlink="http://www.w3.org/1999/xlink" x="0px" y="0px"
	 viewBox="0 0 410.2 410.2" style="enable-background:new 0 0 410.2 410.2;" xml:space="preserve">
<g id="XMLID_1_">
	<g>
		<path d="M410.1,78.4c0,0.8-0.2,1.7-0.8,2.6c-9.7,14.6-21.6,27.6-35.2,38.6c-3.6,2.9-5.6,7.2-5.6,11.7v1.3
			c0,28.3-5.5,57.9-15.9,85.6c-10.9,29.1-26.6,55.4-46.7,78.2c-21.6,24.5-47.2,43.7-76.3,57.1c-31.7,14.7-66.7,22.1-104.2,22.1
			c-42.8,0-85-11.4-121.9-32.9c-2.7-1.6-4.2-4.7-3.4-7.7c0.8-3.1,3.5-5.1,6.6-5.1l10.2,0c32.8,0,64.3-9.6,91.4-27.8
			c-16.3-2.6-31.3-9.8-43.4-20.3c-12.1-10.4-21.5-24.2-26.6-40c-1-3.1,1.3-6,4.4-6c0.3,0,0.6,0,0.9,0.1c4.9,0.9,9.9,1.4,14.9,1.4
			c0.6,0,1.3,0,1.9,0c-30.9-14.1-51.7-45.3-51.7-80.5c0-0.4,0-0.7,0-1.1c0-2.7,2.2-4.6,4.6-4.6c0.8,0,1.5,0.2,2.2,0.6
			c6.3,3.5,13.1,6.1,20.2,7.8c-16.7-16.5-26.4-39.1-26.4-63c0-7.8,1-15.6,3.1-23.1c2-7.5,5-14.7,8.9-21.4c0.9-1.5,2.4-2.3,4-2.3
			c1.3,0,2.6,0.6,3.6,1.7c40,49.1,96.6,79.3,159.4,85.1c0.1,0,0.2,0,0.3,0c0.9,0,1.8-0.4,2.4-1.1c0.4-0.4,0.9-1.2,0.8-2.5
			c-1.2-10.7-0.5-21.6,2.1-32.6c6.9-29.2,29.1-52.8,57.7-61.7c9.3-2.9,18.7-4.3,28-4.3c21.6,0,42.4,7.8,58.5,22.1
			c2.1,1.9,4.8,2.9,7.6,2.9c0.9,0,1.8-0.1,2.7-0.3c7.6-1.9,15-4.4,22.2-7.4c7.2-3,14.2-6.5,21-10.5c3.2-1.9,7,0.6,7,3.9
			c0,0.5-0.1,1-0.2,1.5c-4.5,14.2-12.6,26.9-23.3,37.1c9.7-2.3,19.2-5.5,28.3-9.5C407,72.7,410.1,75.3,410.1,78.4z"/>
	</g>
	<g>
	</g>
</g>
</svg>
