<?xml version="1.0" encoding="utf-8"?>
<!-- Generator: Adobe Illustrator 21.0.0, SVG Export Plug-In . SVG Version: 6.00 Build 0)  -->
<svg version="1.1" id="Capa_1" xmlns="http://www.w3.org/2000/svg" xmlns:xlink="http://www.w3.org/1999/xlink" x="0px" y="0px"
	 viewBox="0 0 112.2 112.2" style="enable-background:new 0 0 112.2 112.2;" xml:space="preserve">
<style type="text/css">
	.st0{fill:#FFFFFF;}
</style>
<g>
	<g>
		<g id="XMLID_1_">
			<g>
				<circle cx="56.1" cy="56.1" r="56.1"/>
			</g>
			<g>
			</g>
		</g>
	</g>
	<path class="st0" d="M54,80.7h4.4c0,0,1.3-0.1,2-0.9c0.6-0.7,0.6-1.9,0.6-1.9s-0.1-5.9,2.7-6.8c2.7-0.9,6.2,5.7,9.9,8.2
		c2.8,1.9,4.9,1.5,4.9,1.5l9.8-0.1c0,0,5.1-0.3,2.7-4.4c-0.2-0.3-1.4-3-7.3-8.5c-6.2-5.7-5.3-4.8,2.1-14.7c4.5-6,6.3-9.7,5.8-11.3
		c-0.5-1.5-3.9-1.1-3.9-1.1l-11.1,0.1c0,0-0.8-0.1-1.4,0.3c-0.6,0.4-1,1.2-1,1.2S72.4,47,70,50.9c-4.9,8.4-6.9,8.8-7.7,8.3
		c-1.9-1.2-1.4-4.9-1.4-7.5c0-8.1,1.2-11.5-2.4-12.4c-1.2-0.3-2.1-0.5-5.2-0.5c-4,0-7.3,0-9.2,0.9c-1.3,0.6-2.2,2-1.6,2.1
		c0.7,0.1,2.4,0.4,3.3,1.6c1.1,1.5,1.1,5,1.1,5s0.7,9.6-1.5,10.7c-1.5,0.8-3.5-0.8-7.9-8.4c-2.3-3.9-4-8.2-4-8.2s-0.3-0.8-0.9-1.2
		c-0.7-0.5-1.7-0.7-1.7-0.7l-10.5,0.1c0,0-1.6,0-2.2,0.7c-0.5,0.6,0,1.9,0,1.9s8.2,19.3,17.6,29C44.3,81.3,54,80.7,54,80.7L54,80.7z
		"/>
</g>
</svg>
