<?xml version="1.0" encoding="utf-8"?>
<!-- Generator: Adobe Illustrator 22.0.1, SVG Export Plug-In . SVG Version: 6.00 Build 0)  -->
<svg version="1.1" id="Layer_1" xmlns="http://www.w3.org/2000/svg" xmlns:xlink="http://www.w3.org/1999/xlink" x="0px" y="0px"
	 viewBox="0 0 24 24" style="enable-background:new 0 0 24 24;" xml:space="preserve">
<path id="Path" d="M18.382,13.42c0.465,0.487,0.975,0.933,1.431,1.437c0.361,0.391,0.706,0.814,0.993,1.267
	c0.378,0.583,0.146,1.021-0.561,1.057c-0.913,0.048-1.831,0.038-2.743,0.053c-0.053,0-0.104-0.018-0.155-0.023
	c-0.479-0.097-0.865-0.365-1.198-0.702c-0.448-0.458-0.861-0.949-1.333-1.389c-0.474-0.45-0.891-0.337-1.108,0.28
	c-0.114,0.335-0.156,0.704-0.191,1.055c-0.04,0.405-0.196,0.562-0.603,0.549c-0.541-0.014-1.08,0.018-1.617-0.02
	c-1.423-0.09-2.635-0.669-3.673-1.638c-0.772-0.729-1.396-1.576-1.968-2.458C4.679,11.383,3.845,9.8,3.104,8.174
	C2.887,7.69,3.001,7.466,3.529,7.45c0.856-0.027,1.713-0.027,2.568-0.013c0.345,0.004,0.588,0.201,0.718,0.531
	c0.412,1.038,0.943,2.019,1.564,2.938c0.22,0.328,0.465,0.645,0.745,0.912c0.354,0.339,0.661,0.252,0.792-0.224
	c0.087-0.3,0.138-0.615,0.149-0.922c0.021-0.553,0.018-1.101-0.017-1.65c-0.054-0.859-0.253-1.095-1.09-1.335
	c0.142-0.334,0.398-0.501,0.705-0.559c0.385-0.07,0.781-0.123,1.168-0.126c0.608-0.004,1.218,0.003,1.819,0.074
	c0.687,0.075,0.87,0.294,0.88,0.99c0.012,0.786-0.029,1.575-0.039,2.364c-0.001,0.264-0.009,0.531,0.015,0.793
	c0.018,0.162,0.059,0.336,0.135,0.492c0.151,0.316,0.387,0.39,0.627,0.138c0.4-0.42,0.799-0.858,1.089-1.35
	c0.481-0.81,0.879-1.657,1.29-2.503c0.224-0.459,0.282-0.52,0.791-0.526c0.915-0.012,1.83-0.016,2.751-0.031
	c0.765-0.009,1.007,0.301,0.644,0.976c-0.399,0.75-0.888,1.453-1.367,2.166c-0.367,0.546-0.793,1.047-1.174,1.589
	C17.923,12.7,17.941,12.962,18.382,13.42"/>
</svg>
