<?xml version="1.0" encoding="UTF-8" standalone="no"?>
<!-- Generator: Adobe Illustrator 22.0.1, SVG Export Plug-In . SVG Version: 6.00 Build 0)  -->

<svg
   xmlns:dc="http://purl.org/dc/elements/1.1/"
   xmlns:cc="http://creativecommons.org/ns#"
   xmlns:rdf="http://www.w3.org/1999/02/22-rdf-syntax-ns#"
   xmlns:svg="http://www.w3.org/2000/svg"
   xmlns="http://www.w3.org/2000/svg"
   xmlns:sodipodi="http://sodipodi.sourceforge.net/DTD/sodipodi-0.dtd"
   xmlns:inkscape="http://www.inkscape.org/namespaces/inkscape"
   version="1.1"
   id="Layer_1"
   x="0px"
   y="0px"
   viewBox="0 0 24 24"
   style="enable-background:new 0 0 24 24;"
   xml:space="preserve"
   sodipodi:docname="baselayer.svg"
   inkscape:version="0.92.3 (2405546, 2018-03-11)"><metadata
   id="metadata8"><rdf:RDF><cc:Work
       rdf:about=""><dc:format>image/svg+xml</dc:format><dc:type
         rdf:resource="http://purl.org/dc/dcmitype/StillImage" /></cc:Work></rdf:RDF></metadata><defs
   id="defs6" /><sodipodi:namedview
   pagecolor="#ffffff"
   bordercolor="#666666"
   borderopacity="1"
   objecttolerance="10"
   gridtolerance="10"
   guidetolerance="10"
   inkscape:pageopacity="0"
   inkscape:pageshadow="2"
   inkscape:window-width="1440"
   inkscape:window-height="877"
   id="namedview4"
   showgrid="false"
   inkscape:zoom="9.8333333"
   inkscape:cx="12"
   inkscape:cy="12"
   inkscape:window-x="-8"
   inkscape:window-y="-8"
   inkscape:window-maximized="1"
   inkscape:current-layer="Layer_1" />
<path
   id="Shape"
   d="M 12,0 C 5.376,0 0,5.376 0,12 0,18.624 5.376,24 12,24 18.624,24 24,18.624 24,12 24,5.376 18.624,0 12,0 Z M 10.8,21.516 C 6.06,20.928 2.4,16.896 2.4,12 2.4,11.256 2.496,10.548 2.652,9.852 L 8.4,15.6 v 1.2 c 0,1.32 1.08,2.4 2.4,2.4 z m 8.28,-3.048 C 18.768,17.496 17.88,16.8 16.8,16.8 H 15.6 V 13.2 C 15.6,12.54 15.06,12 14.4,12 H 7.2 V 9.6 h 2.4 c 0.66,0 1.2,-0.54 1.2,-1.2 V 6 h 2.4 c 1.32,0 2.4,-1.08 2.4,-2.4 V 3.108 c 3.516,1.428 6,4.872 6,8.892 0,2.496 -0.96,4.764 -2.52,6.468 z"
   inkscape:connector-curvature="0"
   style="stroke-width:1.20000005" />
</svg>