<?xml version="1.0" encoding="iso-8859-1"?>
<!-- Generator: Adobe Illustrator 19.0.0, SVG Export Plug-In . SVG Version: 6.00 Build 0)  -->
<svg version="1.1" id="Layer_1" xmlns="http://www.w3.org/2000/svg" xmlns:xlink="http://www.w3.org/1999/xlink" x="0px" y="0px"
	 viewBox="0 0 512.001 512.001" style="enable-background:new 0 0 512.001 512.001;" xml:space="preserve">
<path style="fill:#385C8E;" d="M364.653,249.561L175.971,60.901C125.986,83.082,85.553,122.163,61.63,171.413l190.711,190.705
	l70.597,16.607l74.427,16.003l-16.02-74.526L364.653,249.561z M317.237,369.626l-55.435-12.624
	c19.941-43.466,54.378-77.901,97.839-97.859l12.625,55.436C348.746,326.354,329.004,346.088,317.237,369.626z"/>
<path style="fill:#73A1FB;" d="M269.703,32.684c-31.784,0-62.652,6.157-91.813,18.266L128.174,1.228
	c-1.377-1.377-3.515-1.623-5.174-0.603C74.593,30.553,33.193,71.957,3.269,120.36c-1.026,1.655-0.777,3.797,0.599,5.174
	l47.66,47.646c-14.255,31.286-21.502,64.63-21.502,99.167c0,132.145,107.519,239.654,239.676,239.654
	c132.148,0,239.66-107.509,239.66-239.654C509.362,140.196,401.85,32.684,269.703,32.684z M322.939,378.725l-70.597-16.607
	L61.63,171.413c23.925-49.25,64.358-88.331,114.341-110.512l188.682,188.66l16.691,70.643l16.02,74.526L322.939,378.725z"/>
<path style="fill:#FFFFFF;" d="M261.801,357.002l55.435,12.624c11.768-23.537,31.509-43.272,55.029-55.046l-12.625-55.435
	C316.177,279.101,281.742,313.538,261.801,357.002z"/>
<g>
</g>
<g>
</g>
<g>
</g>
<g>
</g>
<g>
</g>
<g>
</g>
<g>
</g>
<g>
</g>
<g>
</g>
<g>
</g>
<g>
</g>
<g>
</g>
<g>
</g>
<g>
</g>
<g>
</g>
</svg>
