<?xml version="1.0" encoding="UTF-8" standalone="no"?>
<!-- Generator: Adobe Illustrator 21.0.0, SVG Export Plug-In . SVG Version: 6.00 Build 0)  -->

<svg
   xmlns:dc="http://purl.org/dc/elements/1.1/"
   xmlns:cc="http://creativecommons.org/ns#"
   xmlns:rdf="http://www.w3.org/1999/02/22-rdf-syntax-ns#"
   xmlns:svg="http://www.w3.org/2000/svg"
   xmlns="http://www.w3.org/2000/svg"
   xmlns:sodipodi="http://sodipodi.sourceforge.net/DTD/sodipodi-0.dtd"
   xmlns:inkscape="http://www.inkscape.org/namespaces/inkscape"
   version="1.1"
   id="Layer_1"
   x="0px"
   y="0px"
   viewBox="0 0 14 14"
   xml:space="preserve"
   sodipodi:docname="home-button.svg"
   inkscape:version="0.92.3 (2405546, 2018-03-11)"
   width="14"
   height="14"><metadata
   id="metadata12"><rdf:RDF><cc:Work
       rdf:about=""><dc:format>image/svg+xml</dc:format><dc:type
         rdf:resource="http://purl.org/dc/dcmitype/StillImage" /><dc:title></dc:title></cc:Work></rdf:RDF></metadata><defs
   id="defs10">
	

		
	
			
		</defs><sodipodi:namedview
   pagecolor="#ffffff"
   bordercolor="#666666"
   borderopacity="1"
   objecttolerance="10"
   gridtolerance="10"
   guidetolerance="10"
   inkscape:pageopacity="0"
   inkscape:pageshadow="2"
   inkscape:window-width="1440"
   inkscape:window-height="877"
   id="namedview8"
   showgrid="false"
   inkscape:zoom="23.6"
   inkscape:cx="7.6429387"
   inkscape:cy="6.2124798"
   inkscape:window-x="-8"
   inkscape:window-y="-8"
   inkscape:window-maximized="1"
   inkscape:current-layer="Group-25-Copy-4" />
<g
   transform="translate(-2,-8)"
   id="Group-25-Copy-4">
				
			<path
   inkscape:connector-curvature="0"
   d="M 13.6,21 H 16 V 12.599999 L 8.999999,8.3999999 2,12.599999 V 21 H 4.4 V 14.000001 L 9,11.32 13.6,14.000001 Z M 7.7,18.4 V 21 h 2.6 v -2.6 z"
   id="Combined-Shape-0-8-4"
   sodipodi:nodetypes="cccccccccccccccc"
   style="fill:#ffffff;stroke-width:1.39999986" /><path
   style="fill:#400000;fill-opacity:0;stroke-width:0.08474576"
   d="m 9.2300141,19.940741 c -0.014549,-0.01461 -0.1924687,-0.04194 -0.3953772,-0.06074 -0.2029076,-0.0188 -0.4833305,-0.05162 -0.623161,-0.07293 -0.420249,-0.06404 -1.7580273,-0.483414 -2.0878097,-0.654492 -0.1694817,-0.08792 -0.3696936,-0.159855 -0.4449153,-0.159855 -0.075222,0 -0.1367665,-0.04039 -0.1367665,-0.08975 0,-0.04936 -0.038136,-0.06618 -0.084746,-0.03737 -0.04661,0.02881 -0.084746,0.0097 -0.084746,-0.04237 0,-0.05211 -0.034878,-0.07319 -0.077508,-0.04685 -0.042629,0.02635 -0.090299,0.01723 -0.1059322,-0.02026 C 5.1734196,18.71863 4.8746115,18.499269 4.5250352,18.268652 3.7409659,17.751397 2.3043656,16.342198 1.8074395,15.60289 1.4255858,15.034784 0.71147592,13.758771 0.71147592,13.644561 c 0,-0.03549 -0.0439647,-0.171891 -0.0976992,-0.303103 -0.0537346,-0.131213 -0.11138177,-0.314839 -0.12810489,-0.408059 -0.0167231,-0.09322 -0.0548777,-0.226695 -0.0847878,-0.29661 -0.0299102,-0.06992 -0.0617934,-0.165255 -0.0708515,-0.211865 -0.009058,-0.04661 -0.0254559,-0.103813 -0.0364395,-0.127118 -0.0234513,-0.04976 -0.060031,-0.252693 -0.1298449,-0.720339 C 0.10427107,11.179062 0.10374955,8.9139581 0.16303586,8.4842463 0.23122451,7.99001 0.27367269,7.7763649 0.35961202,7.4948626 0.4047869,7.346888 0.4198098,7.2038796 0.39299623,7.177066 0.36618263,7.150252 0.39281588,7.128314 0.45218123,7.128314 c 0.0593653,0 0.0874166,-0.053475 0.0623363,-0.1188334 -0.0250804,-0.065358 -0.0196266,-0.1448076 0.0121196,-0.1765538 0.0317461,-0.031746 0.0608353,-0.083144 0.0646426,-0.1142173 0.003807,-0.031074 0.0896124,-0.2408029 0.19067795,-0.4660655 0.10106559,-0.2252625 0.18375568,-0.46361 0.18375568,-0.529661 0,-0.066051 0.0444915,-0.1200928 0.0988701,-0.1200928 0.054378,0 0.077239,-0.021631 0.0508,-0.04807 -0.050067,-0.050067 0.8581806,-1.4711217 1.2676911,-1.9834443 0.3702498,-0.4632052 1.422621,-1.4430622 1.5498557,-1.4430622 0.041365,0 0.1057049,-0.050352 0.1429787,-0.1118933 0.1072977,-0.1771552 1.5584912,-0.978529 2.2422005,-1.238181 0.6674293,-0.25346934 0.9494823,-0.3557836 0.9807818,-0.355777 0.01079,2.28e-6 0.1442649,-0.0379827 0.2966102,-0.0844111 0.2801207,-0.0853689 0.4928298,-0.12917612 0.9549575,-0.19667236 0.2816644,-0.0411386 2.504745,-0.04879453 2.838983,-0.009777 0.516803,0.0603294 2.200786,0.54201654 2.553911,0.7305216 0.169482,0.0904725 0.346779,0.16449556 0.393993,0.16449556 0.04721,0 0.308129,0.1494216 0.57981,0.3320478 0.27168,0.1826263 0.520152,0.3158633 0.552158,0.2960822 0.03201,-0.019781 0.07098,-0.00335 0.08662,0.036517 0.01563,0.039866 0.371645,0.3601709 0.791136,0.7117895 0.419492,0.3516187 0.845816,0.7291966 0.947389,0.8390622 0.101572,0.1098655 0.282716,0.3063617 0.402542,0.4366583 0.119826,0.1302967 0.217866,0.274502 0.217866,0.3204563 0,0.045954 0.0572,0.1055044 0.127118,0.1323335 0.06992,0.026829 0.127119,0.095993 0.127119,0.1536972 0,0.057704 0.07627,0.1739418 0.169492,0.258305 0.09322,0.084363 0.169491,0.2000111 0.169491,0.2569952 0,0.056984 0.05813,0.1518468 0.129167,0.2108062 0.07104,0.058959 0.110697,0.1256672 0.08812,0.1482397 -0.04477,0.044773 0.166253,0.4939598 0.327691,0.6975182 0.05545,0.069915 0.170021,0.3559322 0.254607,0.6355932 0.08459,0.2796611 0.193109,0.6038136 0.241163,0.720339 0.04805,0.1165254 0.09468,0.25 0.103622,0.2966102 0.0089,0.04661 0.02524,0.1038136 0.03622,0.1271186 0.01098,0.023305 0.03346,0.1186441 0.04995,0.2118644 0.01649,0.09322 0.05063,0.2838983 0.07585,0.4237289 0.229083,1.2697059 0.203469,2.7364833 -0.06586,3.7711863 -0.03033,0.116526 -0.06815,0.288136 -0.08404,0.381356 -0.01589,0.09322 -0.07621,0.283899 -0.134036,0.423729 -0.05783,0.139831 -0.125848,0.378178 -0.15116,0.529661 -0.02531,0.151483 -0.07614,0.275424 -0.112947,0.275424 -0.03681,0 -0.09367,0.12178 -0.126363,0.270623 -0.03269,0.148842 -0.112343,0.323527 -0.177003,0.388188 -0.06466,0.06466 -0.0959,0.152626 -0.06941,0.195479 0.02648,0.04285 0.0055,0.07791 -0.0466,0.07791 -0.05211,0 -0.07118,0.03814 -0.04237,0.08475 0.02881,0.04661 0.02073,0.08475 -0.01796,0.08475 -0.03868,0 -0.164873,0.179368 -0.280425,0.398596 -0.253985,0.481868 -0.433741,0.704373 -1.311789,1.623764 -0.633382,0.663204 -1.642263,1.537902 -2.03259,1.762252 -0.447971,0.257482 -1.531214,0.77289 -1.759783,0.837305 -0.03496,0.0099 -0.08263,0.02745 -0.105932,0.0391 -0.02331,0.01165 -0.08051,0.03072 -0.127119,0.04237 -0.04661,0.01165 -0.103814,0.03072 -0.127119,0.04237 -0.06517,0.03258 -0.111021,0.04157 -1.016949,0.199388 -0.466101,0.08119 -0.942796,0.1646 -1.059322,0.185345 -0.259538,0.04621 -1.698993,0.09166 -1.7356989,0.05481 z m -2.2285967,-8.4056 c -0.020761,-2.2349388 -0.00795,-2.5424202 0.1059322,-2.5424202 0.071252,0 0.12955,-0.032351 0.12955,-0.071891 0,-0.03954 0.1430085,-0.1346339 0.3177967,-0.2113195 C 7.7294844,8.6328251 8.0250352,8.4771191 8.2114759,8.3634965 8.3979166,8.2498741 8.6825971,8.0956073 8.8440988,8.0206811 9.0056013,7.945755 9.1581437,7.8562768 9.1830819,7.8218405 9.2080208,7.7874043 9.3889107,7.6884698 9.5850607,7.6019861 c 0.3542161,-0.1561765 0.3599644,-0.155909 0.8474573,0.039447 0.269952,0.1081795 0.511227,0.2261818 0.536166,0.2622273 0.02494,0.036046 0.17748,0.1268406 0.338983,0.2017667 0.161501,0.074926 0.446182,0.229193 0.632622,0.3428151 0.186441,0.1136229 0.477398,0.2675246 0.646571,0.3420043 l 0.307587,0.1354186 0.06232,2.5759009 0.06232,2.575901 h 0.993598 0.9936 l 0.05599,-2.301905 c 0.03079,-1.266046 0.05599,-2.640874 0.05599,-3.0551706 V 7.9671231 L 14.842832,7.8416289 C 14.691349,7.772607 14.453001,7.6416447 14.313171,7.5506013 14.17334,7.4595579 13.982662,7.3464571 13.889442,7.2992662 13.64241,7.1742113 13.387509,7.0098372 13.33687,6.9429379 13.312616,6.9108963 13.198209,6.84425 13.082633,6.7948352 12.967056,6.7454203 12.797667,6.6572294 12.706212,6.5988554 12.614757,6.5404813 12.385944,6.3981611 12.197737,6.282588 12.009531,6.1670149 11.779273,6.0255022 11.686052,5.9681152 11.592832,5.9107283 11.459357,5.8359881 11.389442,5.802026 11.319527,5.7680639 10.990545,5.5758902 10.658371,5.3749734 10.326197,5.1740565 10.029888,5.00967 9.9999073,5.00967 9.9699263,5.00967 9.8031454,5.098998 9.6292835,5.2081772 9.4554217,5.3173562 9.0843573,5.5315702 8.8046963,5.6842084 8.5250352,5.8368466 7.5438346,6.4053573 6.6242502,6.9475656 l -1.6719714,0.9858332 -0.00176,3.0720342 -0.00176,3.072034 1.0381355,4.7e-5 1.0381356,4.8e-5 z m 4.0304636,1.50419 -0.02379,-1.038136 -0.99088,-0.02383 -0.9908809,-0.02383 -0.026069,1.062123 -0.026069,1.062124 1.0407439,-1.69e-4 1.040744,-1.7e-4 -0.02379,-1.038136 z"
   id="path4601"
   inkscape:connector-curvature="0"
   transform="translate(2,2)" /></g>
</svg>