<?xml version="1.0" encoding="utf-8"?>
<!-- Generator: Adobe Illustrator 22.0.1, SVG Export Plug-In . SVG Version: 6.00 Build 0)  -->
<svg version="1.1" id="Layer_1" xmlns="http://www.w3.org/2000/svg" xmlns:xlink="http://www.w3.org/1999/xlink" x="0px" y="0px"
	 viewBox="0 0 24 24" style="enable-background:new 0 0 24 24;" xml:space="preserve">
<g id="Page-1">
	<g id="RF-2" transform="translate(-35.000000, -720.000000)">
		<g id="Group-13-Copy" transform="translate(32.000000, 716.000000)">
			<g id="Group-14">
				<path id="Path" d="M22.339,11.696C22.922,20.359,13.135,25.759,6,21.371c2.002,0.016,4.221-0.535,5.411-1.661
					C9.679,19.43,8.455,18.64,7.976,17.11c0.506-0.054,1.22,0.104,1.561-0.106c-1.582-0.605-2.835-1.535-2.911-3.641
					c0.562,0.058,0.855,0.389,1.557,0.31c-1.021-0.655-2.191-3.15-1.143-4.997c1.859,2.065,4.178,3.663,7.805,3.956
					c-0.902-3.825,4.171-6.194,6.451-3.433c0.887-0.189,1.634-0.517,2.392-0.833c-0.31,0.869-0.943,1.418-1.562,1.98
					c0.671-0.126,1.386-0.214,1.874-0.524C23.914,10.502,22.933,11.179,22.339,11.696"/>
			</g>
		</g>
	</g>
</g>
</svg>
