<?xml version="1.0" encoding="UTF-8"?>
<!DOCTYPE svg PUBLIC "-//W3C//DTD SVG 1.1//EN" "http://www.w3.org/Graphics/SVG/1.1/DTD/svg11.dtd">
<!-- Creator: CorelDRAW 2017 -->
<svg xmlns="http://www.w3.org/2000/svg" xml:space="preserve" width="5.50052in" height="1.56924in" version="1.1" style="shape-rendering:geometricPrecision; text-rendering:geometricPrecision; image-rendering:optimizeQuality; fill-rule:evenodd; clip-rule:evenodd"
viewBox="0 0 4971.15 1418.21"
 xmlns:xlink="http://www.w3.org/1999/xlink">
 <defs>
  <style type="text/css">
   <![CDATA[
    .fil0 {fill:#D19010}
   ]]>
  </style>
 </defs>
 <g id="Layer_x0020_1">
  <metadata id="CorelCorpID_0Corel-Layer"/>
  <path id="Runivers-logo-color.eps" class="fil0" d="M896.44 1080.25l251.42 -591.03 148.73 0 -337.65 758.48 0.01 0c-30.55,69.26 -61.42,111.65 -94.04,136.87 -33.37,25.8 -68.16,33.64 -106.06,33.64 -15.66,-0.01 -31.61,-1.25 -46.72,-3.12 -15,-1.86 -29.29,-4.36 -41.72,-6.83l-7.56 -1.51 0 -7.71 0 -99.02 0 -11.2 11.02 1.96c10.1,1.77 19.87,2.97 30.57,3.7 10.71,0.72 22.74,1.03 37.34,1.03 20.12,-0.02 32.74,-2.84 44.33,-13.28 12.26,-11.04 24.42,-30.53 42.7,-63.06l-347.08 -729.96 148.99 0 265.72 591.03z"/>
  <path id="Runivers-logo-color.eps_0" class="fil0" d="M4971.15 684.22c-6.7,-89.67 -80.47,-215.41 -262.37,-215.41 -156.75,-0 -279.14,108.13 -279.14,321.04 0,209.57 115.68,319.52 277.46,319.52 152.56,-0.02 238.9,-92.35 264.05,-224.79l-126.58 -0c-15.09,74.6 -64.54,117.36 -134.96,117.36 -107.3,-0 -153.4,-101.43 -153.4,-210.4 0,-171.85 92.2,-215.44 153.4,-215.44 104.78,-0.02 124.89,71.25 134.95,108.13l126.58 -0.02z"/>
  <path id="Runivers-logo-color.eps_1" class="fil0" d="M4014.69 589.51l101.44 0c78.79,0 111.49,25.15 111.49,84.66 0,37.71 -10.9,94.73 -94.73,94.73l-118.19 0 0 -179.39zm0 284.17l145.86 0c163.47,0 193.64,-139.98 193.64,-194.48 0,-119.87 -70.41,-194.46 -187.77,-194.46l-278.29 -0 0 608.57 126.57 0 0 -219.62z"/>
  <polygon id="Runivers-logo-color.eps_2" class="fil0" points="3303.86,484.73 3303.86,1093.3 3766.57,1093.3 3766.57,988.52 3430.43,988.52 3430.43,820.02 3726.34,820.02 3726.34,715.25 3430.43,715.25 3430.43,589.51 3753.16,589.51 3753.16,484.73 "/>
  <path id="Runivers-logo-color.eps_3" class="fil0" d="M2803.42 589.51l145.02 0c57.84,0 93.04,15.93 93.04,65.38 0,48.61 -39.41,67.9 -89.7,67.9l-148.37 0 0 -133.28zm0 235.54l160.94 0c46.11,0 91.37,20.97 91.37,73.78 0,62.02 -36.05,89.7 -98.08,89.7l-154.24 -0.01 0 -163.47zm-126.57 268.25l261.53 0c224.66,0 243.93,-129.92 243.93,-181.9 0,-59.52 -18.45,-118.19 -93.05,-145.85 25.15,-12.57 73.77,-38.56 73.77,-125.74 0,-62.03 -37.72,-155.07 -186.1,-155.07l-300.09 -0 0 608.57z"/>
  <polygon id="Runivers-logo-color.eps_4" class="fil0" points="2131.98,484.73 2005.42,484.73 2005.42,1093.3 2141.21,1093.3 2389.33,659.93 2391.01,659.93 2391.01,1093.3 2517.58,1093.3 2517.58,484.73 2375.08,484.73 2132.83,908.88 2131.98,908.88 "/>
  <polygon id="Runivers-logo-color.eps_5" class="fil0" points="1499.1,484.73 1372.53,484.73 1372.53,1093.3 1499.1,1093.3 1499.1,820.02 1736.33,820.02 1736.33,1093.3 1862.91,1093.3 1862.91,484.73 1736.33,484.73 1736.33,715.25 1499.1,715.25 "/>
  <path id="Runivers-logo-color.eps_6" class="fil0" d="M126.57 589.51l101.43 0c78.8,0 111.49,25.15 111.49,84.66 0,37.71 -10.9,94.73 -94.73,94.73l-118.19 0 0 -179.39zm0 284.17l145.85 0c163.47,0 193.65,-139.98 193.65,-194.48 0,-119.87 -70.41,-194.46 -187.78,-194.46l-278.29 -0 0 608.57 126.57 0 0 -219.62z"/>
  <polygon id="Runivers-logo-color.eps_7" class="fil0" points="872.44,0 913.83,159.13 1056.54,76.27 973.29,218.1 1132.77,260.37 973.66,301.75 1056.54,444.48 914.71,361.22 872.44,520.71 831.03,361.61 688.33,444.48 771.57,302.66 612.08,260.37 771.19,218.96 688.33,76.27 830.14,159.51 "/>
 </g>
</svg>
